<?xml version="1.0" encoding="UTF-8"?>
<!DOCTYPE svg PUBLIC "-//W3C//DTD SVG 1.1//EN" "http://www.w3.org/Graphics/SVG/1.1/DTD/svg11.dtd">
<svg xmlns="http://www.w3.org/2000/svg" version="1.1" width="500px" height="500px" style="shape-rendering:geometricPrecision; text-rendering:geometricPrecision; image-rendering:optimizeQuality; fill-rule:evenodd; clip-rule:evenodd" xmlns:xlink="http://www.w3.org/1999/xlink">
<g><path style="opacity:1" fill="#151313" d="M -0.5,-0.5 C 166.167,-0.5 332.833,-0.5 499.5,-0.5C 499.5,166.167 499.5,332.833 499.5,499.5C 332.833,499.5 166.167,499.5 -0.5,499.5C -0.5,332.833 -0.5,166.167 -0.5,-0.5 Z"/></g>
<g><path style="opacity:1" fill="#ededed" d="M 182.5,204.5 C 182.5,205.167 182.167,205.5 181.5,205.5C 162.776,201.451 144.109,201.618 125.5,206C 110.342,209.851 99.5083,218.684 93,232.5C 92.3333,236.5 92.3333,240.5 93,244.5C 94.4452,249.689 96.1118,254.689 98,259.5C 78.7751,237.892 81.6084,220.059 106.5,206C 121.849,199.331 137.849,196.998 154.5,199C 164.005,200.084 173.339,201.917 182.5,204.5 Z"/></g>
<g><path style="opacity:1" fill="#a6a5a5" d="M 182.5,204.5 C 185.923,205.363 189.256,206.53 192.5,208C 188.604,207.942 184.938,207.108 181.5,205.5C 182.167,205.5 182.5,205.167 182.5,204.5 Z"/></g>
<g><path style="opacity:1" fill="#e9e8e8" d="M 183.5,211.5 C 183.158,212.338 182.492,212.672 181.5,212.5C 169.516,211.495 157.516,211.328 145.5,212C 132.009,213.995 120.509,219.829 111,229.5C 103.578,240.675 103.745,251.842 111.5,263C 111.167,263.167 110.833,263.333 110.5,263.5C 99.6654,253.827 96.8321,242.161 102,228.5C 107.367,221.476 114.2,216.309 122.5,213C 142.662,206.232 162.996,205.732 183.5,211.5 Z"/></g>
<g><path style="opacity:1" fill="#9c9b9b" d="M 183.5,211.5 C 187.207,212.511 190.873,213.677 194.5,215C 190.007,214.66 185.673,213.827 181.5,212.5C 182.492,212.672 183.158,212.338 183.5,211.5 Z"/></g>
<g><path style="opacity:1" fill="#6a6969" d="M 206.5,210.5 C 205.833,212.833 205.167,215.167 204.5,217.5C 205.054,212.441 203.72,207.941 200.5,204C 201.449,203.383 202.282,203.549 203,204.5C 203.926,206.692 205.093,208.692 206.5,210.5 Z"/></g>
<g><path style="opacity:1" fill="#f1f1f1" d="M 206.5,210.5 C 208.176,212.834 210.509,213.834 213.5,213.5C 214.167,213.5 214.5,213.833 214.5,214.5C 212.832,216.479 212.166,218.812 212.5,221.5C 212.672,222.492 212.338,223.158 211.5,223.5C 210.942,222.21 209.942,221.377 208.5,221C 205.8,220.747 203.133,220.747 200.5,221C 202.093,220.051 203.426,218.885 204.5,217.5C 205.167,215.167 205.833,212.833 206.5,210.5 Z"/></g>
<g><path style="opacity:1" fill="#7e7d7d" d="M 214.5,214.5 C 214.5,213.833 214.167,213.5 213.5,213.5C 215.64,212.095 217.974,211.262 220.5,211C 218.636,212.431 216.636,213.597 214.5,214.5 Z"/></g>
<g><path style="opacity:1" fill="#6a6969" d="M 212.5,221.5 C 214.235,224.299 215.401,227.299 216,230.5C 213.991,228.478 212.491,226.145 211.5,223.5C 212.338,223.158 212.672,222.492 212.5,221.5 Z"/></g>
<g><path style="opacity:1" fill="#f3f3f3" d="M 227.5,229.5 C 234.101,228.63 238.767,231.13 241.5,237C 240.942,239.058 239.609,240.225 237.5,240.5C 235.5,239.167 233.5,237.833 231.5,236.5C 229.5,236.5 228.5,237.5 228.5,239.5C 231.101,243.944 233.934,248.278 237,252.5C 237.701,265.43 231.534,270.93 218.5,269C 216.359,267.692 214.359,266.192 212.5,264.5C 208.38,269.492 203.38,270.659 197.5,268C 195.607,265.083 195.107,261.916 196,258.5C 197.804,253.42 199.804,248.42 202,243.5C 204.786,241.816 206.62,242.483 207.5,245.5C 205.418,251.409 203.751,257.409 202.5,263.5C 203.873,263.657 205.207,263.49 206.5,263C 207.961,260.579 209.294,258.079 210.5,255.5C 212.452,253.467 214.618,253.134 217,254.5C 217.96,256.98 218.793,259.48 219.5,262C 226.974,264.508 230.141,262.008 229,254.5C 227,251.833 225,249.167 223,246.5C 218.587,239.171 220.087,233.504 227.5,229.5 Z"/></g>
<g><path style="opacity:1" fill="#f2f2f2" d="M 294.5,291.5 C 293.833,293.5 293.167,295.5 292.5,297.5C 289.035,295.373 285.368,294.873 281.5,296C 283,294.5 284.5,293 286,291.5C 286.495,289.527 286.662,287.527 286.5,285.5C 281.255,287.619 276.755,286.619 273,282.5C 270.793,276.087 272.959,272.087 279.5,270.5C 280.774,269.641 280.608,268.974 279,268.5C 274.931,270.093 271.098,269.76 267.5,267.5C 263.467,270.046 259.467,270.046 255.5,267.5C 250.351,270.498 245.518,270.164 241,266.5C 240.077,264.966 239.577,263.299 239.5,261.5C 240.261,257.311 241.594,253.311 243.5,249.5C 240.582,247.992 239.916,245.825 241.5,243C 243.134,242.506 244.801,242.34 246.5,242.5C 246.737,239.353 247.57,236.353 249,233.5C 251.357,228.475 253.857,228.308 256.5,233C 254.993,236.021 253.993,239.188 253.5,242.5C 257.82,242.959 258.487,244.792 255.5,248C 253.744,248.202 252.078,248.702 250.5,249.5C 248.551,254.01 247.218,258.677 246.5,263.5C 249.157,263.838 251.49,263.171 253.5,261.5C 255.569,256.127 257.736,250.793 260,245.5C 261.853,243.408 264.186,242.408 267,242.5C 270.678,242.828 274.345,243.161 278,243.5C 278.667,244.833 278.667,246.167 278,247.5C 275.464,252.607 273.631,257.94 272.5,263.5C 274.722,263.822 276.556,263.155 278,261.5C 280.197,255.909 282.197,250.242 284,244.5C 287.16,241.499 289.326,241.999 290.5,246C 288.322,251.698 286.656,257.532 285.5,263.5C 287.39,263.703 288.89,263.037 290,261.5C 292.122,255.122 294.622,248.956 297.5,243C 300.567,241.836 302.233,242.836 302.5,246C 300.603,251.857 298.603,257.691 296.5,263.5C 297.002,264.521 297.668,264.688 298.5,264C 301.572,261.191 303.905,257.858 305.5,254C 307.925,253.014 309.591,253.681 310.5,256C 307.32,264.513 301.487,270.346 293,273.5C 292.209,277.719 290.375,281.386 287.5,284.5C 287.977,285.478 288.643,286.311 289.5,287C 292.167,287.333 294.833,287.667 297.5,288C 296.29,289.039 295.29,290.206 294.5,291.5 Z"/></g>
<g><path style="opacity:1" fill="#dedede" d="M 206.5,230.5 C 212.488,230.664 213.821,233.164 210.5,238C 204.403,238.147 203.07,235.647 206.5,230.5 Z"/></g>
<g><path style="opacity:1" fill="#1f1d1d" d="M 266.5,248.5 C 267.693,248.97 268.36,249.97 268.5,251.5C 267.836,255.325 266.669,258.992 265,262.5C 263.989,263.337 262.822,263.67 261.5,263.5C 261.78,257.993 263.447,252.993 266.5,248.5 Z"/></g>
<g><path style="opacity:1" fill="#e7e7e7" d="M 398.5,259.5 C 399.229,264.13 399.563,268.797 399.5,273.5C 394.952,284.544 386.952,292.044 375.5,296C 356.161,301.376 336.827,301.876 317.5,297.5C 318.568,296.566 319.901,296.232 321.5,296.5C 342.383,300.044 362.05,296.544 380.5,286C 394.611,274.092 397.111,260.259 388,244.5C 392.524,248.845 396.024,253.845 398.5,259.5 Z"/></g>
<g><path style="opacity:1" fill="#a0a0a0" d="M 405.5,254.5 C 404.596,255.209 404.263,256.209 404.5,257.5C 403.252,254.516 401.585,251.682 399.5,249C 400.167,248.333 400.833,248.333 401.5,249C 402.965,250.774 404.298,252.608 405.5,254.5 Z"/></g>
<g><path style="opacity:1" fill="#eaeaea" d="M 405.5,254.5 C 417.267,269.789 415.934,283.955 401.5,297C 392.199,303.547 381.866,307.547 370.5,309C 359.167,309.667 347.833,309.667 336.5,309C 333.964,308.814 331.631,308.314 329.5,307.5C 328.737,306.732 327.737,306.232 326.5,306C 327.094,305.536 327.761,305.369 328.5,305.5C 351.774,308.847 373.441,304.68 393.5,293C 404.708,283.298 408.375,271.464 404.5,257.5C 404.263,256.209 404.596,255.209 405.5,254.5 Z"/></g>
<g><path style="opacity:1" fill="#6c6b6b" d="M 398.5,259.5 C 399.973,262.017 400.64,264.85 400.5,268C 400.494,270.033 400.161,271.866 399.5,273.5C 399.563,268.797 399.229,264.13 398.5,259.5 Z"/></g>
<g><path style="opacity:1" fill="#f3f3f3" d="M 140.5,273.5 C 141.833,273.5 143.167,273.5 144.5,273.5C 144.5,274.833 144.5,276.167 144.5,277.5C 145.5,277.5 146.5,277.5 147.5,277.5C 147.5,279.5 147.5,281.5 147.5,283.5C 143.5,283.833 143.5,284.167 147.5,284.5C 147.5,286.5 147.5,288.5 147.5,290.5C 144.315,290.98 141.481,290.314 139,288.5C 138.347,285.782 137.513,283.116 136.5,280.5C 136.667,279.5 136.833,278.5 137,277.5C 139.071,276.897 140.238,275.564 140.5,273.5 Z"/></g>
<g><path style="opacity:1" fill="#2f2d2d" d="M 281.5,275.5 C 285.079,275.766 285.413,277.099 282.5,279.5C 281.675,280.386 280.675,280.719 279.5,280.5C 279.365,278.446 280.032,276.779 281.5,275.5 Z"/></g>
<g><path style="opacity:1" fill="#f1f1f1" d="M 148.5,277.5 C 151.079,277.083 153.246,277.75 155,279.5C 156.444,277.845 158.278,277.178 160.5,277.5C 160.808,279.924 160.474,282.257 159.5,284.5C 157.958,283.253 156.458,283.253 155,284.5C 154.505,286.473 154.338,288.473 154.5,290.5C 152.5,290.5 150.5,290.5 148.5,290.5C 148.5,286.167 148.5,281.833 148.5,277.5 Z"/></g>
<g><path style="opacity:1" fill="#e8e8e8" d="M 164.5,277.5 C 174.535,276.544 177.868,280.877 174.5,290.5C 165.196,293.005 161.029,289.671 162,280.5C 163.045,279.627 163.878,278.627 164.5,277.5 Z"/></g>
<g><path style="opacity:1" fill="#ededed" d="M 194.5,273.5 C 195.833,273.5 197.167,273.5 198.5,273.5C 198.5,274.833 198.5,276.167 198.5,277.5C 199.5,277.5 200.5,277.5 201.5,277.5C 201.5,279.5 201.5,281.5 201.5,283.5C 197.5,283.833 197.5,284.167 201.5,284.5C 201.5,286.5 201.5,288.5 201.5,290.5C 198.753,290.813 196.086,290.48 193.5,289.5C 191.214,281.626 189.88,281.959 189.5,290.5C 180.196,293.005 176.029,289.671 177,280.5C 178.463,278.115 180.629,277.115 183.5,277.5C 186.325,277.119 188.491,278.119 190,280.5C 191.669,278.257 193.169,275.924 194.5,273.5 Z"/></g>
<g><path style="opacity:1" fill="#f4f4f4" d="M 214.5,279.5 C 214.892,281.179 215.392,282.846 216,284.5C 216.497,282.19 216.663,279.857 216.5,277.5C 218.833,277.5 221.167,277.5 223.5,277.5C 222.941,281.853 222.275,286.186 221.5,290.5C 218.833,290.5 216.167,290.5 213.5,290.5C 213.466,281.276 212.8,281.276 211.5,290.5C 208.833,290.5 206.167,290.5 203.5,290.5C 203.073,286.176 202.739,281.842 202.5,277.5C 204.833,277.5 207.167,277.5 209.5,277.5C 209.343,278.873 209.51,280.207 210,281.5C 210.523,279.777 211.523,278.444 213,277.5C 214.03,277.836 214.53,278.503 214.5,279.5 Z"/></g>
<g><path style="opacity:1" fill="#e7e7e7" d="M 238.5,284.5 C 237.539,286.265 237.205,288.265 237.5,290.5C 228.196,293.005 224.029,289.671 225,280.5C 225.5,279.333 226.333,278.5 227.5,278C 234.075,275.724 237.742,277.891 238.5,284.5 Z"/></g>
<g><path style="opacity:1" fill="#f8f8f8" d="M 252.5,280.5 C 253.167,283.833 253.833,287.167 254.5,290.5C 251.606,290.958 249.106,290.291 247,288.5C 244.782,290.619 242.282,290.952 239.5,289.5C 238.691,287.929 238.357,286.262 238.5,284.5C 238.833,284.5 239.167,284.5 239.5,284.5C 241.738,283.463 244.071,283.297 246.5,284C 243.949,285.516 244.282,286.349 247.5,286.5C 246.83,281.64 244.163,280.307 239.5,282.5C 239.5,280.833 239.5,279.167 239.5,277.5C 243.182,277.335 246.848,277.501 250.5,278C 251.381,278.708 252.047,279.542 252.5,280.5 Z"/></g>
<g><path style="opacity:1" fill="#888787" d="M 255.5,277.5 C 255.5,281.833 255.5,286.167 255.5,290.5C 255.167,290.5 254.833,290.5 254.5,290.5C 253.833,287.167 253.167,283.833 252.5,280.5C 253.29,281.609 253.79,282.942 254,284.5C 254.186,281.964 254.686,279.631 255.5,277.5 Z"/></g>
<g><path style="opacity:1" fill="#f3f3f3" d="M 255.5,277.5 C 257.167,277.5 258.833,277.5 260.5,277.5C 260.459,281.243 261.126,281.41 262.5,278C 264.134,277.506 265.801,277.34 267.5,277.5C 267.808,279.924 267.474,282.257 266.5,284.5C 261.074,282.641 259.074,284.641 260.5,290.5C 258.833,290.5 257.167,290.5 255.5,290.5C 255.5,286.167 255.5,281.833 255.5,277.5 Z"/></g>
<g><path style="opacity:1" fill="#807f7f" d="M 216.5,277.5 C 216.663,279.857 216.497,282.19 216,284.5C 215.392,282.846 214.892,281.179 214.5,279.5C 215.167,278.833 215.833,278.167 216.5,277.5 Z"/></g>
<g><path style="opacity:1" fill="#9a9999" d="M 239.5,284.5 C 239.5,283.833 239.5,283.167 239.5,282.5C 244.163,280.307 246.83,281.64 247.5,286.5C 244.282,286.349 243.949,285.516 246.5,284C 244.071,283.297 241.738,283.463 239.5,284.5 Z"/></g>
<g><path style="opacity:1" fill="#f1f0f0" d="M 124.5,277.5 C 128.167,277.5 131.833,277.5 135.5,277.5C 135.5,279.167 135.5,280.833 135.5,282.5C 127.614,282.532 127.614,283.198 135.5,284.5C 136.848,286.611 136.515,288.445 134.5,290C 130.848,290.499 127.182,290.665 123.5,290.5C 123.083,287.921 123.75,285.754 125.5,284C 123.316,282.102 122.983,279.936 124.5,277.5 Z"/></g>
<g><path style="opacity:1" fill="#919090" d="M 321.5,296.5 C 319.901,296.232 318.568,296.566 317.5,297.5C 313.307,297.047 309.307,295.881 305.5,294C 310.959,294.513 316.292,295.347 321.5,296.5 Z"/></g>
<g><path style="opacity:1" fill="#5b5a5a" d="M 294.5,291.5 C 293.826,296.467 295.16,300.8 298.5,304.5C 297.833,305.833 297.167,305.833 296.5,304.5C 294.902,302.302 293.569,299.969 292.5,297.5C 293.167,295.5 293.833,293.5 294.5,291.5 Z"/></g>
<g><path style="opacity:1" fill="#797878" d="M 316.5,302.5 C 315.209,302.263 314.209,302.596 313.5,303.5C 309.708,302.292 306.041,300.792 302.5,299C 307.439,299.317 312.106,300.483 316.5,302.5 Z"/></g>
<g><path style="opacity:1" fill="#bbbbbb" d="M 313.5,303.5 C 314.209,302.596 315.209,302.263 316.5,302.5C 320.615,303.51 324.615,304.51 328.5,305.5C 327.761,305.369 327.094,305.536 326.5,306C 327.737,306.232 328.737,306.732 329.5,307.5C 323.993,306.774 318.659,305.44 313.5,303.5 Z"/></g>
</svg>
